<svg fill="none" height="32" viewBox="0 0 32 32" width="32" xmlns="http://www.w3.org/2000/svg" xmlns:xlink="http://www.w3.org/1999/xlink"><clipPath id="a"><path d="m0 0h32v32h-32z"/></clipPath><g clip-path="url(#a)"><path d="m31 16.001c0 8.284-6.716 15-15 15s-15-6.716-15-15m30 0c0-8.284-6.716-15-15-15s-15 6.716-15 15m30 0h-30m10.834-14.4131c-2.437 4.245-3.83 9.167-3.83 14.413s1.392 10.168 3.83 14.413m8.3359-.0018c2.438-4.244 3.83-9.165 3.83-14.411 0-5.244-1.393-10.163-3.828-14.411m7.4824 23.8494c-3.566-1.565-7.507-2.435-11.65-2.435-4.147 0-8.09.872-11.659 2.439m.0033-18.88c3.566 1.568 7.509 2.438 11.655 2.438 4.145 0 8.086-.871 11.655-2.438m-11.6596-5.5635v30" stroke="#000" stroke-linecap="round" stroke-linejoin="round" stroke-width="2"/></g></svg>