<svg xmlns="http://www.w3.org/2000/svg" xmlns:xlink="http://www.w3.org/1999/xlink" width="182" height="97.304" viewBox="0 0 182 97.304">
  <defs>
    <clipPath id="clip-path">
      <rect id="Rectángulo_213" data-name="Rectángulo 213" width="182" height="97.304" fill="#fff"/>
    </clipPath>
  </defs>
  <g id="Grupo_185" data-name="Grupo 185" transform="translate(0 3)">
    <g id="Grupo_184" data-name="Grupo 184" transform="translate(0 -3)" clip-path="url(#clip-path)">
      <path id="Trazado_335" data-name="Trazado 335" d="M18.085,13.294c0,2.164-1.221,3.258-3.639,3.258-2.4,0-3.595-1.094-3.595-3.258V3.259C10.851,1.1,12.049,0,14.446,0c2.418,0,3.639,1.094,3.639,3.258v1.5c0,.286-.133.428-.377.428H16.62c-.244,0-.377-.142-.377-.428V3.306c0-1.07-.6-1.593-1.775-1.593s-1.753.523-1.753,1.593v9.94c0,1.07.577,1.593,1.753,1.593s1.775-.523,1.775-1.593V11.463a.352.352,0,0,1,.377-.4h1.087a.352.352,0,0,1,.377.4Z" transform="translate(-7.485 -18.577)" fill="#fff"/>
      <path id="Trazado_336" data-name="Trazado 336" d="M49.178,13.628c0,1.07.621,1.593,1.842,1.593,1.243,0,1.864-.523,1.864-1.593V1c0-.285.133-.428.377-.428h1.154q.333,0,.333.428V13.676c0,2.164-1.243,3.258-3.728,3.258a3.785,3.785,0,0,1-2.818-.9,3.236,3.236,0,0,1-.865-2.354V1c0-.285.133-.428.377-.428h1.154Q49.2.573,49.2,1Z" transform="translate(-32.653 -18.959)" fill="#fff"/>
      <path id="Trazado_337" data-name="Trazado 337" d="M88.467.572a.447.447,0,0,1,.466.4l3.129,15.362c.044.261-.044.4-.288.4H90.62a.428.428,0,0,1-.444-.4l-.754-3.924h-3.24l-.754,3.924c-.045.261-.178.4-.422.4H83.941c-.244,0-.333-.143-.288-.4L86.781.976a.448.448,0,0,1,.466-.4ZM88.2,6.161a22.162,22.162,0,0,1-.377-2.711c-.133,1.165-.244,2.069-.377,2.687l-.954,4.637h2.663Z" transform="translate(-57.696 -18.958)" fill="#fff"/>
      <path id="Trazado_338" data-name="Trazado 338" d="M130.809,16.339c0,.261-.111.4-.355.4h-1.109a.358.358,0,0,1-.355-.286l-3.483-9.512A13.618,13.618,0,0,1,125,5.328v11.01a.352.352,0,0,1-.377.4h-.932a.352.352,0,0,1-.377-.4V.976a.352.352,0,0,1,.377-.4h1.11a.362.362,0,0,1,.355.262l3.506,9.584c.2.547.355,1.046.466,1.474V.976a.353.353,0,0,1,.377-.4h.954c.244,0,.355.143.355.4Z" transform="translate(-85.06 -18.958)" fill="#fff"/>
      <path id="Trazado_339" data-name="Trazado 339" d="M163.467,16.743c-.2,0-.311-.143-.311-.428V1c0-.285.111-.428.355-.428h3.328a3.938,3.938,0,0,1,2.862.9,3.162,3.162,0,0,1,.887,2.354v9.655a3.236,3.236,0,0,1-.865,2.354,3.865,3.865,0,0,1-2.862.9ZM165.02,2.285V15.031h1.8c1.265,0,1.886-.547,1.886-1.641V3.926c0-1.094-.621-1.641-1.886-1.641Z" transform="translate(-112.546 -18.959)" fill="#fff"/>
      <path id="Trazado_340" data-name="Trazado 340" d="M201.715,3.259A3.236,3.236,0,0,1,202.58.9a3.843,3.843,0,0,1,2.84-.9c2.485,0,3.728,1.094,3.728,3.258V13.294c0,2.164-1.243,3.258-3.728,3.258a3.843,3.843,0,0,1-2.84-.9,3.236,3.236,0,0,1-.865-2.354Zm5.569.048c0-1.07-.621-1.593-1.864-1.593-1.22,0-1.842.523-1.842,1.593v9.94c0,1.07.621,1.593,1.842,1.593,1.243,0,1.864-.523,1.864-1.593Z" transform="translate(-139.145 -18.577)" fill="#fff"/>
      <path id="Trazado_341" data-name="Trazado 341" d="M259.329,16.743c-.2,0-.311-.143-.311-.428V1c0-.285.111-.428.355-.428H262.7a3.937,3.937,0,0,1,2.862.9,3.162,3.162,0,0,1,.888,2.354v9.655a3.237,3.237,0,0,1-.865,2.354,3.865,3.865,0,0,1-2.862.9Zm1.553-14.458V15.031h1.8c1.265,0,1.886-.547,1.886-1.641V3.926c0-1.094-.621-1.641-1.886-1.641Z" transform="translate(-178.673 -18.959)" fill="#fff"/>
      <path id="Trazado_342" data-name="Trazado 342" d="M298.5,16.743c-.244,0-.355-.143-.355-.428V1c0-.285.111-.428.355-.428H303.9a.353.353,0,0,1,.378.4V1.9a.335.335,0,0,1-.378.381h-3.883v5.16h3.595c.244,0,.377.143.377.4v.88a.352.352,0,0,1-.377.4h-3.595v5.9h4.038a.334.334,0,0,1,.377.38v.927a.352.352,0,0,1-.377.4Z" transform="translate(-205.666 -18.958)" fill="#fff"/>
      <path id="Trazado_343" data-name="Trazado 343" d="M336.158,3.258c-.022-1.022-.6-1.546-1.775-1.546s-1.753.523-1.753,1.546V4.471a1.918,1.918,0,0,0,.91,1.784l2.8,1.712a3.311,3.311,0,0,1,1.731,2.972v2.354a3.237,3.237,0,0,1-.866,2.354,4.846,4.846,0,0,1-5.636,0,3.237,3.237,0,0,1-.865-2.354V11.629c0-.286.133-.428.377-.428h1.109c.244,0,.355.142.355.428V13.27c0,1.07.621,1.593,1.842,1.593,1.265,0,1.886-.523,1.886-1.593V11.486a1.811,1.811,0,0,0-.333-1.142A3.791,3.791,0,0,0,335,9.536L332.3,7.848a3.133,3.133,0,0,1-1.487-2.854V3.258c0-2.164,1.2-3.258,3.595-3.258,2.419,0,3.617,1.094,3.617,3.258v1.4a.352.352,0,0,1-.378.4h-1.109c-.244,0-.355-.143-.355-.4Z" transform="translate(-228.12 -18.576)" fill="#fff"/>
      <path id="Trazado_344" data-name="Trazado 344" d="M374.99,13.294c0,2.164-1.22,3.258-3.639,3.258-2.4,0-3.595-1.094-3.595-3.258V3.259c0-2.164,1.2-3.258,3.595-3.258,2.419,0,3.639,1.094,3.639,3.258v1.5c0,.286-.133.428-.377.428h-1.087c-.244,0-.377-.142-.377-.428V3.306c0-1.07-.6-1.593-1.775-1.593s-1.753.523-1.753,1.593v9.94c0,1.07.577,1.593,1.753,1.593s1.775-.523,1.775-1.593V11.463a.352.352,0,0,1,.377-.4h1.087a.352.352,0,0,1,.377.4Z" transform="translate(-253.681 -18.577)" fill="#fff"/>
      <path id="Trazado_345" data-name="Trazado 345" d="M406.082,13.628c0,1.07.621,1.593,1.842,1.593,1.243,0,1.864-.523,1.864-1.593V1c0-.285.133-.428.377-.428h1.154q.333,0,.333.428V13.676c0,2.164-1.243,3.258-3.728,3.258a3.785,3.785,0,0,1-2.818-.9,3.236,3.236,0,0,1-.865-2.354V1c0-.285.133-.428.377-.428h1.154q.333,0,.333.428Z" transform="translate(-278.848 -18.959)" fill="#fff"/>
      <path id="Trazado_346" data-name="Trazado 346" d="M444.156,16.743c-.244,0-.355-.143-.355-.428V1c0-.285.111-.428.355-.428h2.929q3.728,0,3.728,3V5.9a2.284,2.284,0,0,1-1.465,2.378,2.3,2.3,0,0,1,1.886,2.5v2.878c0,2.068-1.243,3.091-3.727,3.091Zm1.509-14.482V7.636h1.464c1.22,0,1.819-.523,1.819-1.593V3.783c0-1.023-.621-1.522-1.864-1.522Zm0,6.968v5.826h1.842q1.863,0,1.864-1.569V10.822c0-1.07-.665-1.593-2-1.593Z" transform="translate(-306.138 -18.959)" fill="#fff"/>
      <path id="Trazado_347" data-name="Trazado 347" d="M483.865,16.387c0,.286-.111.428-.355.428h-1.154c-.244,0-.355-.142-.355-.428V1.072c0-.285.111-.428.355-.428H485.6a3.869,3.869,0,0,1,2.863.9,3.237,3.237,0,0,1,.865,2.354V7.089a2.818,2.818,0,0,1-1.82,2.925l1.886,6.373a.259.259,0,0,1-.022.286.37.37,0,0,1-.288.119h-1.243c-.2,0-.333-.143-.422-.428l-1.709-6.04h-1.842v6.064Zm0-14.054V8.587H485.6c1.265,0,1.886-.523,1.886-1.593V3.926c0-1.07-.621-1.593-1.886-1.593Z" transform="translate(-332.488 -19.006)" fill="#fff"/>
      <path id="Trazado_348" data-name="Trazado 348" d="M520.629,16.743c-.244,0-.355-.143-.355-.428V1c0-.285.111-.428.355-.428h5.392a.352.352,0,0,1,.377.4V1.9a.335.335,0,0,1-.377.381h-3.883v5.16h3.595a.352.352,0,0,1,.377.4v.88a.352.352,0,0,1-.377.4h-3.595v5.9h4.038a.335.335,0,0,1,.378.38v.927a.353.353,0,0,1-.378.4Z" transform="translate(-358.889 -18.958)" fill="#fff"/>
      <path id="Trazado_349" data-name="Trazado 349" d="M558.284,3.258c-.022-1.022-.6-1.546-1.775-1.546s-1.753.523-1.753,1.546V4.471a1.918,1.918,0,0,0,.91,1.784l2.8,1.712a3.311,3.311,0,0,1,1.731,2.972v2.354a3.235,3.235,0,0,1-.866,2.354,4.846,4.846,0,0,1-5.636,0,3.237,3.237,0,0,1-.865-2.354V11.629c0-.286.133-.428.377-.428h1.109c.244,0,.355.142.355.428V13.27c0,1.07.621,1.593,1.842,1.593,1.265,0,1.886-.523,1.886-1.593V11.486a1.81,1.81,0,0,0-.333-1.142,3.793,3.793,0,0,0-.932-.808l-2.707-1.688a3.132,3.132,0,0,1-1.487-2.854V3.258c0-2.164,1.2-3.258,3.595-3.258,2.419,0,3.616,1.094,3.616,3.258v1.4a.352.352,0,0,1-.377.4h-1.109c-.244,0-.355-.143-.355-.4Z" transform="translate(-381.344 -18.576)" fill="#fff"/>
      <path id="Trazado_350" data-name="Trazado 350" d="M182,71.06H0V133.6H55.449v29.718H156.978V133.6H182ZM55.449,130.484H2.907V74.176H55.449ZM154.071,160.2H58.356V133.6h95.714Zm25.02-29.716H58.356V74.176H179.091Z" transform="translate(0 -66.013)" fill="#fff"/>
      <path id="Trazado_351" data-name="Trazado 351" d="M226.237,288.4c0,.855.593,1.377,1.907,1.377s1.935-.522,1.935-1.377v-7.885c0-.221.074-.316.265-.316h.9c.208,0,.265.1.265.316v8.138c0,1.3-.825,2.438-3.367,2.438s-3.353-1.14-3.353-2.438v-8.138c0-.221.087-.316.279-.316h.9c.191,0,.265.1.265.316Z" transform="translate(-155.063 -205.626)" fill="#fff"/>
      <path id="Trazado_352" data-name="Trazado 352" d="M253.472,288.707c.208,0,.267.1.281.3l.03.507a3.576,3.576,0,0,1,2.451-.934,1.9,1.9,0,0,1,2.085,2.027v5.636c0,.222-.074.317-.267.317H257.2c-.194,0-.281-.1-.281-.317v-5.272c0-.649-.281-1.045-1.093-1.045a3.254,3.254,0,0,0-2.009.808v5.509c0,.222-.074.317-.267.317h-.856c-.207,0-.281-.1-.281-.317v-7.235c0-.206.074-.3.281-.3Z" transform="translate(-174.114 -211.222)" fill="#fff"/>
      <path id="Trazado_353" data-name="Trazado 353" d="M278.295,281.035c0,.206-.074.3-.267.3h-.856c-.208,0-.281-.1-.281-.3V279.61c0-.222.074-.317.281-.317h.856c.194,0,.267.1.267.317Zm0,9.008c0,.222-.074.317-.267.317h-.856c-.208,0-.281-.1-.281-.317v-7.219c0-.222.074-.317.281-.317h.856c.194,0,.267.1.267.317Z" transform="translate(-191.001 -205.022)" fill="#fff"/>
      <path id="Trazado_354" data-name="Trazado 354" d="M287,296.814c-.194,0-.238-.079-.3-.285l-2.274-7.251c-.06-.206.058-.317.251-.317h.9c.191,0,.265.127.323.317l1.4,4.544a8.065,8.065,0,0,1,.221,1.171,7.815,7.815,0,0,1,.251-1.155l1.478-4.56c.058-.19.118-.317.309-.317h.814c.191,0,.309.111.249.317l-2.364,7.251c-.058.206-.1.285-.279.285Z" transform="translate(-196.192 -211.476)" fill="#fff"/>
      <path id="Trazado_355" data-name="Trazado 355" d="M312.4,292.682c0,.19-.074.285-.251.285h-4.017v1.457c0,.649.3,1.06,1.478,1.06s1.476-.412,1.476-1.06v-.174c0-.206.074-.3.281-.3h.754c.191,0,.279.1.279.3v.269c0,1.3-.724,2.169-2.82,2.169s-2.823-.871-2.823-2.169V290.75c0-1.3.754-2.169,2.853-2.169,2.083,0,2.79.87,2.79,2.169Zm-4.269-.839h2.954v-1c0-.633-.369-1.06-1.476-1.06-1.123,0-1.478.427-1.478,1.06Z" transform="translate(-211.602 -211.222)" fill="#fff"/>
      <path id="Trazado_356" data-name="Trazado 356" d="M333.8,288.881v.728a.275.275,0,0,1-.3.316,3.928,3.928,0,0,0-2.29,1.013v5.3c0,.222-.074.317-.267.317h-.855c-.208,0-.281-.1-.281-.317v-7.235c0-.206.074-.3.281-.3h.782c.208,0,.267.1.281.3l.044.681a3.29,3.29,0,0,1,2.306-1.108.264.264,0,0,1,.3.3" transform="translate(-227.505 -211.222)" fill="#fff"/>
      <path id="Trazado_357" data-name="Trazado 357" d="M348.642,290.528c0-.57-.489-.839-1.4-.839s-1.374.269-1.374.839v.269a.824.824,0,0,0,.62.728l2.216.823c.812.3,1.33.807,1.33,1.551v.887c0,.982-.814,1.9-2.806,1.9-2.011,0-2.793-.918-2.793-1.9v-.4c0-.19.074-.285.251-.285h.782c.192,0,.252.1.252.285v.332c0,.57.563.84,1.508.84.929,0,1.506-.27,1.506-.84V294.3c0-.38-.3-.586-.784-.76l-2.216-.823a1.789,1.789,0,0,1-1.151-1.6v-.586c0-.982.678-1.947,2.673-1.947s2.675.966,2.675,1.947v.38c0,.206-.06.285-.265.285h-.77c-.175,0-.249-.079-.249-.285Z" transform="translate(-237.592 -211.222)" fill="#fff"/>
      <path id="Trazado_358" data-name="Trazado 358" d="M368.168,281.035c0,.206-.074.3-.267.3h-.856c-.207,0-.281-.1-.281-.3V279.61c0-.222.074-.317.281-.317h.856c.194,0,.267.1.267.317Zm0,9.008c0,.222-.074.317-.267.317h-.856c-.207,0-.281-.1-.281-.317v-7.219c0-.222.074-.317.281-.317h.856c.194,0,.267.1.267.317Z" transform="translate(-252.997 -205.022)" fill="#fff"/>
      <path id="Trazado_359" data-name="Trazado 359" d="M378.655,285.209c.191,0,.281.079.281.286v.633c0,.222-.09.317-.281.317h-1.522V290.7c0,.665.386,1.044,1.492,1.044h.282c.191,0,.281.1.281.317v.665c0,.222-.09.3-.281.3h-.487c-2.084,0-2.7-.776-2.7-2.169v-4.417H374.9c-.208,0-.282-.1-.282-.317v-.553c0-.207.074-.286.282-.3l.724-.064h.088v-1.6c0-.222.09-.316.281-.316h.872c.191,0,.265.095.265.316v1.6Z" transform="translate(-258.417 -207.693)" fill="#fff"/>
      <path id="Trazado_360" data-name="Trazado 360" d="M392.233,284.231c0-1.267.768-2.137,2.793-2.137,2.082,0,2.793.87,2.793,2.137v5.526c0,.222-.076.317-.268.317h-.768c-.207,0-.265-.1-.281-.317l-.028-.459a3.574,3.574,0,0,1-2.336.9,1.892,1.892,0,0,1-2.082-1.916v-.76a1.867,1.867,0,0,1,2.055-1.915h2.334V284.39c0-.649-.311-1.077-1.434-1.077s-1.462.38-1.462,1.029v.127c0,.221-.074.316-.281.316H392.5c-.191,0-.265-.1-.265-.316Zm4.211,3.911v-1.362H394.4c-.74,0-.976.348-.976.966v.317c0,.617.325.887,1.063.887a3.14,3.14,0,0,0,1.951-.807m-2.94-8.978c-.118-.174-.074-.3.134-.3h.916c.205,0,.3.111.383.286l.872,1.694c.1.206.03.285-.132.285h-.694a.418.418,0,0,1-.355-.19Z" transform="translate(-270.443 -204.736)" fill="#fff"/>
      <path id="Trazado_361" data-name="Trazado 361" d="M420.048,288.881v.728a.275.275,0,0,1-.3.316,3.943,3.943,0,0,0-2.29,1.013v5.3c0,.222-.074.317-.265.317h-.858c-.205,0-.279-.1-.279-.317v-7.235c0-.206.074-.3.279-.3h.784c.208,0,.265.1.281.3l.044.681a3.285,3.285,0,0,1,2.3-1.108.264.264,0,0,1,.3.3" transform="translate(-287.003 -211.222)" fill="#fff"/>
      <path id="Trazado_362" data-name="Trazado 362" d="M433.367,281.035c0,.206-.074.3-.267.3h-.856c-.207,0-.281-.1-.281-.3V279.61c0-.222.074-.317.281-.317h.856c.194,0,.267.1.267.317Zm0,9.008c0,.222-.074.317-.267.317h-.856c-.207,0-.281-.1-.281-.317v-7.219c0-.222.074-.317.281-.317h.856c.194,0,.267.1.267.317Z" transform="translate(-297.971 -205.022)" fill="#fff"/>
      <path id="Trazado_363" data-name="Trazado 363" d="M441.619,290.717c0-1.267.768-2.137,2.793-2.137,2.082,0,2.793.871,2.793,2.137v5.525c0,.222-.076.317-.268.317h-.768c-.207,0-.265-.1-.281-.317l-.028-.459a3.575,3.575,0,0,1-2.336.9,1.892,1.892,0,0,1-2.083-1.916v-.76A1.867,1.867,0,0,1,443.5,292.1h2.334v-1.219c0-.65-.311-1.077-1.434-1.077s-1.462.38-1.462,1.03v.127c0,.221-.074.316-.281.316h-.768c-.191,0-.265-.1-.265-.316Zm4.211,3.911v-1.362h-2.039c-.74,0-.976.348-.976.966v.317c0,.617.325.887,1.063.887a3.14,3.14,0,0,0,1.951-.808" transform="translate(-304.51 -211.222)" fill="#fff"/>
      <path id="Trazado_364" data-name="Trazado 364" d="M217.626,131.923V131.4h16.742v.953a40.187,40.187,0,0,0,.308,4.9l-.584.2a12.273,12.273,0,0,1-2.576-4.633h-6.928v9.5l6.531-.23.614-2.267h.673v6.177h-.582l-.705-2.234-6.531-.23v9.661l2.545.723v.526h-9.506v-.526l2.238-.723V132.646Z" transform="translate(-150.12 -106.292)" fill="#fff"/>
      <path id="Trazado_365" data-name="Trazado 365" d="M282.988,151.222l1.994.723v.526h-8.4v-.526l1.992-.723V130.387l-2.024-.362V129.4l5.581-1.052h.858Z" transform="translate(-190.766 -104.258)" fill="#fff"/>
      <path id="Trazado_366" data-name="Trazado 366" d="M324.05,157.947c0,5.554-3.281,8.84-7.881,8.84-4.66,0-7.756-3.09-7.756-8.643s3.281-8.84,7.911-8.84c4.66,0,7.727,3.09,7.727,8.642m-4.662.132c0-5.028-1.134-7.493-3.281-7.493-2.207,0-3.035,2.465-3.035,7.493,0,4.995,1.134,7.427,3.343,7.427,2.147,0,2.974-2.432,2.974-7.427" transform="translate(-212.745 -118.247)" fill="#fff"/>
      <path id="Trazado_367" data-name="Trazado 367" d="M373.038,154.761a9,9,0,0,0-.8-3.155,7.4,7.4,0,0,0-2.729,1.808v11.8l2.574.723v.526h-9.2v-.526l2.209-.723V151.606l-2.239-.361v-.559l5.8-1.38h.735v2.728h.123a6.175,6.175,0,0,1,5-2.728,6.566,6.566,0,0,1,1.38.165,16.939,16.939,0,0,1-.86,5.29Z" transform="translate(-250.303 -118.248)" fill="#fff"/>
      <path id="Trazado_368" data-name="Trazado 368" d="M415.276,151.419l1.992.723v.526h-8.4v-.526l1.994-.723v-13.54l-2.024-.361v-.625l5.611-1.38h.828Zm-2.332-22.774a2.384,2.384,0,1,1-2.453,2.4,2.278,2.278,0,0,1,2.453-2.4" transform="translate(-282.019 -104.455)" fill="#fff"/>
      <path id="Trazado_369" data-name="Trazado 369" d="M454.415,128.351v22.871l1.994.69v.559H450.46l-.308-1.906h-.121a6.592,6.592,0,0,1-4.691,2.235c-3.037,0-6.1-1.972-6.1-8.347,0-5.52,3.158-9.135,7.788-9.135a7.714,7.714,0,0,1,2.973.559v-5.487l-2.024-.362V129.4l5.581-1.052ZM450,149.448V138.374a4,4,0,0,0-2.973-1.709c-2.362,0-3.128,2.465-3.128,7.427,0,4.9,1.41,6.31,3.557,6.31a3.858,3.858,0,0,0,2.544-.953" transform="translate(-302.99 -104.259)" fill="#fff"/>
      <path id="Trazado_370" data-name="Trazado 370" d="M507.729,164.652a6,6,0,0,1-4.386,2.136c-2.3,0-4.477-1.118-4.477-4.371v-1.905c2.054-2.4,6.286-3.616,8.708-4.174v-1.61c0-2.794-.705-4.108-2.759-4.108a3.508,3.508,0,0,0-1.778.526A11.24,11.24,0,0,0,502,155.188h-1.626a6.512,6.512,0,0,1-1.226-3.221,9.538,9.538,0,0,1,6.745-2.662c3.833,0,6.04,1.84,6.04,6.014,0,2.564-.092,4.042-.092,8.511,0,.855.337,1.084.766,1.084.737,0,1.38-1.248,1.625-2.1l.7.263c-.643,2.695-1.931,3.68-3.986,3.68a3.081,3.081,0,0,1-3.218-2.1m-.185-.953a2.091,2.091,0,0,1-.032-.46c0-1.807.032-3.778.061-5.784a12.749,12.749,0,0,0-4.445,2.037v2.334c0,1.971.858,2.826,1.931,2.826a4.136,4.136,0,0,0,2.485-.953" transform="translate(-344.123 -118.247)" fill="#fff"/>
      <path id="Trazado_371" data-name="Trazado 371" d="M46.912,131.014c-1.467-4.042-2.719-9.393-2-11.591.4-1.228,5.061-6.766,12.456-11.92-4.509-2.569-10.532-5-15.823-5.384,0,0-2.509,17.955,6.835,32.462-.615-1.34-1.106-2.574-1.466-3.567" transform="translate(-28.445 -86.747)" fill="#fff"/>
      <path id="Trazado_372" data-name="Trazado 372" d="M78.967,103.295c-12.92,5.676-21.345,15.618-21.689,16.675-.9,2.758,2.805,17.42,10.161,23.54a46.758,46.758,0,0,0,4.068-4.156h0c17.116-17.04,10.531-37.2,10.531-37.2a28.123,28.123,0,0,0-3.072,1.145" transform="translate(-39.419 -86.768)" fill="#fff"/>
    </g>
  </g>
</svg>
